{"asset":{"version":"2.0","generator":"babylon.js glTF exporter for 3dsmax 2018 v20200508.2"},"scene":0,"scenes":[{"nodes":[0]}],"nodes":[{"children":[1,7],"scale":[100.0,100.0,100.0],"name":"root"},{"children":[2,3,4,5,6],"mesh":0,"translation":[1.07430053,0.1573439,-0.019124927],"rotation":[0.0,0.7071068,0.0,0.7071067],"scale":[0.0922347,0.0922347,0.0922347],"name":"沙盘"},{"mesh":1,"translation":[7.62939436E-08,1.52587887E-07,1.2207031E-06],"rotation":[0.0,-3.55271453E-15,0.0,1.0],"scale":[0.9999998,0.9999998,0.9999998],"name":"1f"},{"mesh":2,"translation":[7.62939436E-08,1.52587887E-07,1.2207031E-06],"rotation":[0.0,-3.55271453E-15,0.0,1.0],"scale":[0.9999998,0.9999998,0.9999998],"name":"2f"},{"mesh":3,"translation":[7.62939436E-08,1.52587887E-07,1.2207031E-06],"rotation":[0.0,-3.55271453E-15,0.0,1.0],"scale":[0.9999998,0.9999998,0.9999998],"name":"3f"},{"mesh":4,"translation":[7.62939436E-08,1.52587887E-07,1.2207031E-06],"rotation":[0.0,-3.55271453E-15,0.0,1.0],"scale":[0.9999998,0.9999998,0.9999998],"name":"4f"},{"mesh":5,"translation":[7.62939436E-08,1.52587887E-07,1.2207031E-06],"rotation":[0.0,-3.55271453E-15,0.0,1.0],"scale":[0.9999998,0.9999998,0.9999998],"name":"5f"},{"name":"Default light"}],"meshes":[{"primitives":[{"attributes":{"POSITION":1,"NORMAL":2,"TEXCOORD_0":3},"indices":0,"material":0}],"name":"沙盘"},{"primitives":[{"attributes":{"POSITION":5,"NORMAL":6,"TEXCOORD_0":7},"indices":4,"material":1}],"name":"1f"},{"primitives":[{"attributes":{"POSITION":9,"NORMAL":10,"TEXCOORD_0":11},"indices":8,"material":1}],"name":"2f"},{"primitives":[{"attributes":{"POSITION":13,"NORMAL":14,"TEXCOORD_0":15},"indices":12,"material":1}],"name":"3f"},{"primitives":[{"attributes":{"POSITION":17,"NORMAL":18,"TEXCOORD_0":19},"indices":16,"material":1}],"name":"4f"},{"primitives":[{"attributes":{"POSITION":21,"NORMAL":22,"TEXCOORD_0":23},"indices":20,"material":1}],"name":"5f"}],"accessors":[{"bufferView":0,"componentType":5123,"count":5262,"type":"SCALAR","name":"accessorIndices"},{"bufferView":1,"componentType":5126,"count":5262,"max":[0.936855,0.365851521,0.478685051],"min":[-0.9368551,-0.3658517,-0.5438636],"type":"VEC3","name":"accessorPositions"},{"bufferView":1,"byteOffset":63144,"componentType":5126,"count":5262,"type":"VEC3","name":"accessorNormals"},{"bufferView":2,"componentType":5126,"count":5262,"type":"VEC2","name":"accessorUVs"},{"bufferView":0,"byteOffset":10524,"componentType":5123,"count":42,"type":"SCALAR","name":"accessorIndices"},{"bufferView":1,"byteOffset":126288,"componentType":5126,"count":42,"max":[0.908304036,-0.2564395,-3.24249271E-07],"min":[-0.908302,-0.3633002,-0.458495617],"type":"VEC3","name":"accessorPositions"},{"bufferView":1,"byteOffset":126792,"componentType":5126,"count":42,"type":"VEC3","name":"accessorNormals"},{"bufferView":2,"byteOffset":42096,"componentType":5126,"count":42,"type":"VEC2","name":"accessorUVs"},{"bufferView":0,"byteOffset":10608,"componentType":5123,"count":42,"type":"SCALAR","name":"accessorIndices"},{"bufferView":1,"byteOffset":127296,"componentType":5126,"count":42,"max":[0.9114188,-0.134862974,-3.05175774E-07],"min":[-0.911416769,-0.198626921,-0.46068868],"type":"VEC3","name":"accessorPositions"},{"bufferView":1,"byteOffset":127800,"componentType":5126,"count":42,"type":"VEC3","name":"accessorNormals"},{"bufferView":2,"byteOffset":42432,"componentType":5126,"count":42,"type":"VEC2","name":"accessorUVs"},{"bufferView":0,"byteOffset":10692,"componentType":5123,"count":42,"type":"SCALAR","name":"accessorIndices"},{"bufferView":1,"byteOffset":128304,"componentType":5126,"count":42,"max":[0.9114189,-0.0119347759,-2.670288E-07],"min":[-0.9114169,-0.07462268,-0.460679322],"type":"VEC3","name":"accessorPositions"},{"bufferView":1,"byteOffset":128808,"componentType":5126,"count":42,"type":"VEC3","name":"accessorNormals"},{"bufferView":2,"byteOffset":42768,"componentType":5126,"count":42,"type":"VEC2","name":"accessorUVs"},{"bufferView":0,"byteOffset":10776,"componentType":5123,"count":42,"type":"SCALAR","name":"accessorIndices"},{"bufferView":1,"byteOffset":129312,"componentType":5126,"count":42,"max":[0.9114189,0.110787272,-3.62396236E-07],"min":[-0.9114169,0.0454146564,-0.460669845],"type":"VEC3","name":"accessorPositions"},{"bufferView":1,"byteOffset":129816,"componentType":5126,"count":42,"type":"VEC3","name":"accessorNormals"},{"bufferView":2,"byteOffset":43104,"componentType":5126,"count":42,"type":"VEC2","name":"accessorUVs"},{"bufferView":0,"byteOffset":10860,"componentType":5123,"count":42,"type":"SCALAR","name":"accessorIndices"},{"bufferView":1,"byteOffset":130320,"componentType":5126,"count":42,"max":[0.9114189,0.232052609,-3.43322739E-07],"min":[-0.9114169,0.167901918,-0.4606603],"type":"VEC3","name":"accessorPositions"},{"bufferView":1,"byteOffset":130824,"componentType":5126,"count":42,"type":"VEC3","name":"accessorNormals"},{"bufferView":2,"byteOffset":43440,"componentType":5126,"count":42,"type":"VEC2","name":"accessorUVs"}],"bufferViews":[{"buffer":0,"byteLength":10944,"name":"bufferViewScalar"},{"buffer":0,"byteOffset":10944,"byteLength":131328,"byteStride":12,"name":"bufferViewFloatVec3"},{"buffer":0,"byteOffset":142272,"byteLength":43776,"byteStride":8,"name":"bufferViewFloatVec2"}],"buffers":[{"uri":"shapan.bin","byteLength":186048}],"materials":[{"pbrMetallicRoughness":{"baseColorFactor":[0.5882353,0.5882353,0.5882353,1.0],"metallicFactor":0.0,"roughnessFactor":0.450053632},"name":"12 - Default"},{"pbrMetallicRoughness":{"baseColorFactor":[0.137254909,0.172549024,0.6313726,1.0],"metallicFactor":0.0,"roughnessFactor":0.450053632},"name":"18 - Default"}]}